<?xml version="1.0"?>
<svg xmlns="http://www.w3.org/2000/svg" width="640" height="640" viewBox="0 0 640 640" role="img" aria-label="Global logo">
  <rect width="640" height="640" fill="#FFFFFF"></rect>
  <g fill-rule="evenodd" clip-rule="evenodd" shape-rendering="geometricPrecision">
    <path fill="#1554B8" d="M 395.0 203.0 L 392.0 199.0 L 388.0 199.0 L 387.0 197.0 L 380.0 198.0 L 376.0 194.0 L 376.0 192.0 L 379.0 191.0 L 384.0 185.0 L 383.0 181.0 L 376.0 178.0 L 371.0 178.0 L 369.0 176.0 L 355.0 173.0 L 329.0 171.0 L 302.0 172.0 L 295.0 174.0 L 295.0 180.0 L 297.0 180.0 L 299.0 185.0 L 302.0 186.0 L 302.0 190.0 L 306.0 192.0 L 305.0 199.0 L 303.0 200.0 L 303.0 205.0 L 305.0 206.0 L 304.0 213.0 L 294.0 210.0 L 287.0 210.0 L 284.0 219.0 L 259.0 219.0 L 257.0 223.0 L 249.0 224.0 L 248.0 229.0 L 245.0 230.0 L 244.0 233.0 L 239.0 234.0 L 239.0 240.0 L 235.0 241.0 L 235.0 244.0 L 225.0 250.0 L 225.0 253.0 L 220.0 257.0 L 220.0 259.0 L 218.0 260.0 L 217.0 270.0 L 208.0 267.0 L 207.0 264.0 L 203.0 262.0 L 187.0 262.0 L 186.0 260.0 L 184.0 260.0 L 181.0 264.0 L 176.0 278.0 L 175.0 288.0 L 184.0 286.0 L 194.0 280.0 L 196.0 282.0 L 198.0 295.0 L 206.0 299.0 L 206.0 311.0 L 218.0 313.0 L 220.0 311.0 L 223.0 311.0 L 230.0 304.0 L 240.0 306.0 L 245.0 309.0 L 253.0 309.0 L 254.0 312.0 L 256.0 312.0 L 257.0 309.0 L 261.0 309.0 L 266.0 312.0 L 270.0 312.0 L 273.0 319.0 L 282.0 320.0 L 288.0 325.0 L 289.0 328.0 L 292.0 328.0 L 292.0 335.0 L 298.0 341.0 L 298.0 344.0 L 301.0 344.0 L 303.0 346.0 L 320.0 346.0 L 322.0 343.0 L 323.0 316.0 L 359.0 315.0 L 359.0 310.0 L 353.0 305.0 L 353.0 290.0 L 356.0 289.0 L 354.0 273.0 L 359.0 268.0 L 361.0 268.0 L 364.0 263.0 L 368.0 263.0 L 370.0 261.0 L 373.0 248.0 L 382.0 242.0 L 379.0 230.0 L 376.0 229.0 L 376.0 221.0 L 379.0 220.0 L 384.0 213.0 L 397.0 212.0 L 397.0 210.0 L 395.0 209.0 Z&#xA;M 441.0 400.0 L 392.0 400.0 L 360.0 402.0 L 324.0 401.0 L 315.0 410.0 L 309.0 410.0 L 306.0 412.0 L 307.0 422.0 L 305.0 423.0 L 303.0 434.0 L 298.0 435.0 L 287.0 452.0 L 276.0 456.0 L 275.0 464.0 L 296.0 471.0 L 307.0 471.0 L 314.0 473.0 L 352.0 473.0 L 356.0 471.0 L 364.0 471.0 L 390.0 463.0 L 403.0 457.0 L 419.0 445.0 L 429.0 435.0 L 442.0 417.0 Z&#xA;M 175.0 305.0 L 174.0 307.0 L 172.0 307.0 L 171.0 329.0 L 177.0 366.0 L 192.0 399.0 L 206.0 418.0 L 231.0 442.0 L 239.0 447.0 L 242.0 447.0 L 241.0 430.0 L 238.0 427.0 L 237.0 393.0 L 231.0 389.0 L 225.0 389.0 L 224.0 386.0 L 219.0 384.0 L 217.0 375.0 L 214.0 373.0 L 214.0 371.0 L 210.0 370.0 L 210.0 367.0 L 204.0 359.0 L 203.0 355.0 L 204.0 344.0 L 210.0 337.0 L 213.0 336.0 L 213.0 327.0 L 209.0 324.0 L 203.0 324.0 L 197.0 318.0 L 194.0 318.0 L 192.0 316.0 L 192.0 312.0 L 183.0 309.0 L 182.0 306.0 Z&#xA;M 408.0 227.0 L 409.0 233.0 L 428.0 232.0 L 431.0 236.0 L 434.0 237.0 L 434.0 245.0 L 439.0 245.0 L 440.0 247.0 L 454.0 247.0 L 456.0 243.0 L 466.0 243.0 L 467.0 246.0 L 472.0 250.0 L 486.0 249.0 L 484.0 241.0 L 479.0 239.0 L 478.0 237.0 L 475.0 237.0 L 471.0 232.0 L 465.0 232.0 L 464.0 235.0 L 459.0 235.0 L 456.0 233.0 L 454.0 226.0 L 452.0 226.0 L 452.0 230.0 L 448.0 235.0 L 438.0 237.0 L 435.0 236.0 L 435.0 224.0 L 433.0 222.0 L 422.0 222.0 L 421.0 220.0 L 418.0 220.0 L 417.0 223.0 L 411.0 223.0 Z&#xA;M 277.0 205.0 L 277.0 208.0 L 287.0 208.0 L 287.0 206.0 L 284.0 206.0 L 283.0 204.0 Z"></path>
    <path fill="#00175F" d="M 272.0 87.0 L 269.0 89.0 L 248.0 93.0 L 246.0 95.0 L 242.0 95.0 L 240.0 97.0 L 236.0 97.0 L 234.0 99.0 L 221.0 103.0 L 206.0 110.0 L 182.0 125.0 L 164.0 139.0 L 139.0 164.0 L 123.0 186.0 L 120.0 188.0 L 98.0 230.0 L 90.0 253.0 L 90.0 262.0 L 88.0 263.0 L 88.0 269.0 L 86.0 270.0 L 85.0 279.0 L 87.0 280.0 L 87.0 282.0 L 84.0 283.0 L 85.0 293.0 L 82.0 300.0 L 81.0 315.0 L 82.0 333.0 L 84.0 336.0 L 84.0 361.0 L 88.0 368.0 L 88.0 377.0 L 94.0 400.0 L 98.0 406.0 L 107.0 430.0 L 120.0 453.0 L 140.0 480.0 L 163.0 503.0 L 190.0 523.0 L 225.0 541.0 L 250.0 550.0 L 268.0 553.0 L 275.0 556.0 L 305.0 559.0 L 306.0 557.0 L 319.0 559.0 L 343.0 557.0 L 365.0 558.0 L 369.0 556.0 L 377.0 556.0 L 380.0 554.0 L 407.0 548.0 L 408.0 546.0 L 422.0 542.0 L 454.0 525.0 L 488.0 497.0 L 499.0 484.0 L 499.0 482.0 L 508.0 473.0 L 528.0 441.0 L 545.0 400.0 L 547.0 392.0 L 547.0 381.0 L 549.0 380.0 L 548.0 373.0 L 552.0 365.0 L 550.0 356.0 L 552.0 355.0 L 553.0 331.0 L 550.0 314.0 L 528.0 314.0 L 527.0 316.0 L 461.0 317.0 L 460.0 315.0 L 458.0 315.0 L 457.0 317.0 L 423.0 317.0 L 422.0 315.0 L 384.0 316.0 L 375.0 318.0 L 365.0 317.0 L 360.0 314.0 L 359.0 316.0 L 323.0 317.0 L 322.0 346.0 L 325.0 352.0 L 325.0 371.0 L 323.0 372.0 L 325.0 401.0 L 451.0 399.0 L 452.0 402.0 L 445.0 415.0 L 443.0 415.0 L 442.0 419.0 L 430.0 435.0 L 419.0 446.0 L 403.0 458.0 L 390.0 464.0 L 364.0 472.0 L 356.0 472.0 L 352.0 474.0 L 314.0 474.0 L 307.0 472.0 L 296.0 472.0 L 275.0 465.0 L 270.0 465.0 L 266.0 462.0 L 256.0 459.0 L 249.0 455.0 L 243.0 448.0 L 237.0 447.0 L 231.0 443.0 L 205.0 418.0 L 191.0 399.0 L 176.0 366.0 L 170.0 329.0 L 171.0 307.0 L 173.0 306.0 L 172.0 292.0 L 177.0 291.0 L 177.0 289.0 L 174.0 288.0 L 174.0 284.0 L 180.0 264.0 L 182.0 263.0 L 185.0 252.0 L 187.0 251.0 L 200.0 229.0 L 221.0 207.0 L 238.0 194.0 L 241.0 195.0 L 241.0 198.0 L 244.0 198.0 L 248.0 189.0 L 274.0 177.0 L 280.0 176.0 L 281.0 178.0 L 284.0 178.0 L 292.0 173.0 L 319.0 170.0 L 348.0 171.0 L 369.0 175.0 L 371.0 177.0 L 376.0 177.0 L 383.0 180.0 L 384.0 184.0 L 395.0 184.0 L 396.0 186.0 L 405.0 189.0 L 410.0 192.0 L 411.0 195.0 L 415.0 195.0 L 431.0 205.0 L 436.0 210.0 L 437.0 217.0 L 441.0 218.0 L 443.0 221.0 L 448.0 222.0 L 451.0 226.0 L 454.0 226.0 L 456.0 228.0 L 464.0 225.0 L 465.0 232.0 L 469.0 232.0 L 469.0 225.0 L 465.0 225.0 L 464.0 222.0 L 518.0 168.0 L 518.0 165.0 L 497.0 144.0 L 495.0 144.0 L 465.0 120.0 L 459.0 118.0 L 444.0 108.0 L 417.0 97.0 L 412.0 97.0 L 404.0 93.0 L 382.0 89.0 L 379.0 87.0 L 363.0 88.0 L 361.0 85.0 L 320.0 83.0 L 288.0 85.0 L 287.0 87.0 Z&#xA;M 359.0 14.0 L 343.0 16.0 L 337.0 15.0 L 334.0 12.0 L 323.0 12.0 L 322.0 15.0 L 311.0 15.0 L 310.0 13.0 L 306.0 13.0 L 305.0 15.0 L 264.0 17.0 L 262.0 19.0 L 246.0 21.0 L 238.0 25.0 L 220.0 29.0 L 185.0 44.0 L 156.0 62.0 L 152.0 63.0 L 134.0 76.0 L 112.0 95.0 L 79.0 131.0 L 56.0 165.0 L 33.0 214.0 L 34.0 221.0 L 32.0 222.0 L 32.0 226.0 L 29.0 228.0 L 26.0 235.0 L 25.0 247.0 L 22.0 251.0 L 22.0 257.0 L 20.0 259.0 L 20.0 275.0 L 18.0 276.0 L 16.0 283.0 L 16.0 301.0 L 18.0 302.0 L 18.0 333.0 L 15.0 334.0 L 16.0 354.0 L 18.0 359.0 L 18.0 369.0 L 20.0 373.0 L 22.0 390.0 L 25.0 393.0 L 26.0 404.0 L 30.0 408.0 L 30.0 417.0 L 33.0 419.0 L 33.0 426.0 L 43.0 447.0 L 43.0 450.0 L 58.0 478.0 L 74.0 502.0 L 96.0 529.0 L 117.0 550.0 L 142.0 570.0 L 160.0 582.0 L 183.0 595.0 L 190.0 597.0 L 209.0 607.0 L 235.0 614.0 L 243.0 618.0 L 259.0 620.0 L 261.0 622.0 L 266.0 622.0 L 269.0 624.0 L 282.0 625.0 L 283.0 623.0 L 288.0 623.0 L 296.0 627.0 L 343.0 627.0 L 357.0 625.0 L 358.0 623.0 L 361.0 623.0 L 362.0 625.0 L 375.0 624.0 L 378.0 622.0 L 400.0 618.0 L 435.0 607.0 L 469.0 591.0 L 507.0 567.0 L 543.0 535.0 L 545.0 523.0 L 537.0 515.0 L 533.0 514.0 L 530.0 519.0 L 527.0 519.0 L 495.0 549.0 L 464.0 569.0 L 436.0 582.0 L 434.0 585.0 L 422.0 587.0 L 415.0 591.0 L 404.0 593.0 L 396.0 597.0 L 382.0 599.0 L 375.0 603.0 L 370.0 602.0 L 367.0 604.0 L 343.0 604.0 L 339.0 606.0 L 305.0 605.0 L 304.0 607.0 L 299.0 607.0 L 297.0 604.0 L 279.0 604.0 L 275.0 602.0 L 266.0 603.0 L 261.0 599.0 L 256.0 599.0 L 247.0 595.0 L 241.0 595.0 L 239.0 593.0 L 235.0 593.0 L 221.0 587.0 L 210.0 585.0 L 208.0 582.0 L 186.0 572.0 L 149.0 548.0 L 117.0 520.0 L 102.0 503.0 L 98.0 496.0 L 95.0 495.0 L 95.0 493.0 L 77.0 468.0 L 60.0 435.0 L 49.0 402.0 L 45.0 399.0 L 45.0 387.0 L 43.0 384.0 L 41.0 372.0 L 39.0 371.0 L 40.0 361.0 L 38.0 353.0 L 36.0 316.0 L 38.0 307.0 L 38.0 286.0 L 44.0 254.0 L 43.0 249.0 L 47.0 247.0 L 49.0 234.0 L 60.0 205.0 L 79.0 168.0 L 82.0 166.0 L 89.0 154.0 L 109.0 129.0 L 129.0 109.0 L 160.0 84.0 L 186.0 68.0 L 211.0 56.0 L 214.0 56.0 L 226.0 50.0 L 230.0 50.0 L 233.0 46.0 L 241.0 46.0 L 245.0 43.0 L 251.0 43.0 L 252.0 41.0 L 264.0 41.0 L 266.0 39.0 L 287.0 37.0 L 291.0 35.0 L 327.0 34.0 L 351.0 35.0 L 352.0 37.0 L 367.0 37.0 L 370.0 39.0 L 377.0 39.0 L 380.0 41.0 L 386.0 41.0 L 400.0 45.0 L 405.0 44.0 L 408.0 48.0 L 418.0 50.0 L 442.0 60.0 L 478.0 80.0 L 498.0 94.0 L 514.0 109.0 L 519.0 108.0 L 520.0 114.0 L 539.0 133.0 L 543.0 133.0 L 556.0 121.0 L 556.0 119.0 L 548.0 110.0 L 513.0 78.0 L 486.0 59.0 L 480.0 57.0 L 467.0 48.0 L 451.0 40.0 L 430.0 32.0 L 426.0 32.0 L 425.0 30.0 L 414.0 27.0 L 412.0 25.0 L 399.0 23.0 L 397.0 21.0 L 389.0 21.0 L 388.0 19.0 L 379.0 17.0 L 363.0 17.0 Z&#xA;M 280.0 208.0 L 274.0 211.0 L 267.0 209.0 L 266.0 212.0 L 262.0 215.0 L 262.0 218.0 L 264.0 218.0 L 267.0 213.0 L 279.0 213.0 Z&#xA;M 381.0 237.0 L 381.0 241.0 L 402.0 239.0 L 402.0 237.0 Z&#xA;M 404.0 233.0 L 404.0 236.0 L 418.0 235.0 L 418.0 233.0 L 409.0 234.0 L 408.0 231.0 Z&#xA;M 238.0 395.0 L 238.0 417.0 L 240.0 417.0 L 240.0 395.0 Z&#xA;M 284.0 203.0 L 283.0 209.0 L 289.0 209.0 L 289.0 203.0 Z"></path>
  </g>
</svg>